<mxfile host="app.diagrams.net" modified="2022-04-06T08:25:25.437Z" agent="5.0 (Windows NT 10.0; Win64; x64) AppleWebKit/537.36 (KHTML, like Gecko) Chrome/99.0.4844.84 Safari/537.36" etag="gvh7YOG37B7454oFzs_5" version="17.4.0" type="github">
  <diagram id="_1iMeuJ26HrN5dHHzgqp" name="第1頁">
    <mxGraphModel dx="1504" dy="644" grid="1" gridSize="10" guides="1" tooltips="1" connect="1" arrows="1" fold="1" page="1" pageScale="1" pageWidth="827" pageHeight="1169" math="0" shadow="0">
      <root>
        <mxCell id="0" />
        <mxCell id="1" parent="0" />
        <mxCell id="7C1xdIGx_7xfbtWlueGm-8" value="" style="edgeStyle=orthogonalEdgeStyle;rounded=0;orthogonalLoop=1;jettySize=auto;html=1;fontSize=14;" edge="1" parent="1" source="7C1xdIGx_7xfbtWlueGm-4" target="7C1xdIGx_7xfbtWlueGm-5">
          <mxGeometry relative="1" as="geometry" />
        </mxCell>
        <mxCell id="7C1xdIGx_7xfbtWlueGm-4" value="&lt;font style=&quot;font-size: 12px&quot;&gt;程式開始&lt;/font&gt;" style="rounded=1;whiteSpace=wrap;html=1;fontSize=14;" vertex="1" parent="1">
          <mxGeometry x="250" y="30" width="120" height="60" as="geometry" />
        </mxCell>
        <mxCell id="7C1xdIGx_7xfbtWlueGm-9" value="" style="edgeStyle=orthogonalEdgeStyle;rounded=0;orthogonalLoop=1;jettySize=auto;html=1;fontSize=14;" edge="1" parent="1" source="7C1xdIGx_7xfbtWlueGm-5" target="7C1xdIGx_7xfbtWlueGm-7">
          <mxGeometry relative="1" as="geometry" />
        </mxCell>
        <mxCell id="7C1xdIGx_7xfbtWlueGm-5" value="&lt;font style=&quot;font-size: 12px&quot;&gt;定義腳位：&lt;br&gt;窗、光感、CO、聲感峰值、PIR&lt;/font&gt;" style="rounded=0;whiteSpace=wrap;html=1;fontSize=14;" vertex="1" parent="1">
          <mxGeometry x="250" y="120" width="120" height="60" as="geometry" />
        </mxCell>
        <mxCell id="7C1xdIGx_7xfbtWlueGm-12" style="edgeStyle=orthogonalEdgeStyle;rounded=0;orthogonalLoop=1;jettySize=auto;html=1;exitX=0.5;exitY=1;exitDx=0;exitDy=0;fontSize=14;" edge="1" parent="1" source="7C1xdIGx_7xfbtWlueGm-7" target="7C1xdIGx_7xfbtWlueGm-10">
          <mxGeometry relative="1" as="geometry">
            <Array as="points">
              <mxPoint x="310" y="290" />
              <mxPoint x="190" y="290" />
            </Array>
          </mxGeometry>
        </mxCell>
        <mxCell id="7C1xdIGx_7xfbtWlueGm-13" style="edgeStyle=orthogonalEdgeStyle;rounded=0;orthogonalLoop=1;jettySize=auto;html=1;exitX=0.5;exitY=1;exitDx=0;exitDy=0;fontSize=14;" edge="1" parent="1" source="7C1xdIGx_7xfbtWlueGm-7">
          <mxGeometry relative="1" as="geometry">
            <mxPoint x="430.0344827586207" y="320" as="targetPoint" />
            <Array as="points">
              <mxPoint x="310" y="290" />
              <mxPoint x="430" y="290" />
            </Array>
          </mxGeometry>
        </mxCell>
        <mxCell id="7C1xdIGx_7xfbtWlueGm-7" value="&lt;font style=&quot;font-size: 12px&quot;&gt;初始化：腳位、串口參數&lt;br&gt;全域變數：聲音峰值&lt;br&gt;&lt;/font&gt;" style="rounded=0;whiteSpace=wrap;html=1;fontSize=14;" vertex="1" parent="1">
          <mxGeometry x="250" y="210" width="120" height="60" as="geometry" />
        </mxCell>
        <mxCell id="7C1xdIGx_7xfbtWlueGm-19" value="" style="edgeStyle=orthogonalEdgeStyle;rounded=0;orthogonalLoop=1;jettySize=auto;html=1;fontSize=12;" edge="1" parent="1" source="7C1xdIGx_7xfbtWlueGm-10" target="7C1xdIGx_7xfbtWlueGm-18">
          <mxGeometry relative="1" as="geometry" />
        </mxCell>
        <mxCell id="7C1xdIGx_7xfbtWlueGm-10" value="&lt;font style=&quot;font-size: 12px&quot;&gt;獲取聲感數值&lt;/font&gt;" style="rounded=0;whiteSpace=wrap;html=1;fontSize=14;" vertex="1" parent="1">
          <mxGeometry x="130" y="320" width="120" height="60" as="geometry" />
        </mxCell>
        <mxCell id="7C1xdIGx_7xfbtWlueGm-16" style="edgeStyle=orthogonalEdgeStyle;rounded=0;orthogonalLoop=1;jettySize=auto;html=1;exitX=0.5;exitY=1;exitDx=0;exitDy=0;fontSize=14;" edge="1" parent="1" source="7C1xdIGx_7xfbtWlueGm-14">
          <mxGeometry relative="1" as="geometry">
            <mxPoint x="190" y="300" as="targetPoint" />
            <Array as="points">
              <mxPoint x="190" y="660" />
              <mxPoint x="80" y="660" />
              <mxPoint x="80" y="300" />
            </Array>
          </mxGeometry>
        </mxCell>
        <mxCell id="7C1xdIGx_7xfbtWlueGm-14" value="&lt;font style=&quot;font-size: 12px&quot;&gt;延遲10毫秒&lt;/font&gt;" style="rounded=0;whiteSpace=wrap;html=1;fontSize=14;" vertex="1" parent="1">
          <mxGeometry x="130" y="580" width="120" height="60" as="geometry" />
        </mxCell>
        <mxCell id="7C1xdIGx_7xfbtWlueGm-26" value="" style="edgeStyle=orthogonalEdgeStyle;rounded=0;orthogonalLoop=1;jettySize=auto;html=1;fontSize=12;" edge="1" parent="1" source="7C1xdIGx_7xfbtWlueGm-17" target="7C1xdIGx_7xfbtWlueGm-25">
          <mxGeometry relative="1" as="geometry" />
        </mxCell>
        <mxCell id="7C1xdIGx_7xfbtWlueGm-32" style="edgeStyle=orthogonalEdgeStyle;rounded=0;orthogonalLoop=1;jettySize=auto;html=1;exitX=0;exitY=0.5;exitDx=0;exitDy=0;fontSize=12;" edge="1" parent="1" source="7C1xdIGx_7xfbtWlueGm-17">
          <mxGeometry relative="1" as="geometry">
            <mxPoint x="430" y="300" as="targetPoint" />
          </mxGeometry>
        </mxCell>
        <mxCell id="7C1xdIGx_7xfbtWlueGm-17" value="&lt;font style=&quot;font-size: 12px&quot;&gt;Master是否&lt;br&gt;onRequest&lt;br&gt;&lt;/font&gt;" style="rhombus;whiteSpace=wrap;html=1;fontSize=14;" vertex="1" parent="1">
          <mxGeometry x="370" y="320" width="120" height="60" as="geometry" />
        </mxCell>
        <mxCell id="7C1xdIGx_7xfbtWlueGm-22" value="" style="edgeStyle=orthogonalEdgeStyle;rounded=0;orthogonalLoop=1;jettySize=auto;html=1;fontSize=12;" edge="1" parent="1" source="7C1xdIGx_7xfbtWlueGm-18" target="7C1xdIGx_7xfbtWlueGm-21">
          <mxGeometry relative="1" as="geometry" />
        </mxCell>
        <mxCell id="7C1xdIGx_7xfbtWlueGm-24" style="edgeStyle=orthogonalEdgeStyle;rounded=0;orthogonalLoop=1;jettySize=auto;html=1;exitX=1;exitY=0.5;exitDx=0;exitDy=0;fontSize=12;" edge="1" parent="1" source="7C1xdIGx_7xfbtWlueGm-18">
          <mxGeometry relative="1" as="geometry">
            <mxPoint x="190" y="560" as="targetPoint" />
            <Array as="points">
              <mxPoint x="280" y="430" />
              <mxPoint x="280" y="560" />
            </Array>
          </mxGeometry>
        </mxCell>
        <mxCell id="7C1xdIGx_7xfbtWlueGm-18" value="是否超過峰值" style="rhombus;whiteSpace=wrap;html=1;fontSize=12;" vertex="1" parent="1">
          <mxGeometry x="130" y="400" width="120" height="60" as="geometry" />
        </mxCell>
        <mxCell id="7C1xdIGx_7xfbtWlueGm-23" value="" style="edgeStyle=orthogonalEdgeStyle;rounded=0;orthogonalLoop=1;jettySize=auto;html=1;fontSize=12;" edge="1" parent="1" source="7C1xdIGx_7xfbtWlueGm-21" target="7C1xdIGx_7xfbtWlueGm-14">
          <mxGeometry relative="1" as="geometry" />
        </mxCell>
        <mxCell id="7C1xdIGx_7xfbtWlueGm-21" value="更新最高峰值" style="rounded=0;whiteSpace=wrap;html=1;fontSize=12;" vertex="1" parent="1">
          <mxGeometry x="130" y="480" width="120" height="60" as="geometry" />
        </mxCell>
        <mxCell id="7C1xdIGx_7xfbtWlueGm-28" value="" style="edgeStyle=orthogonalEdgeStyle;rounded=0;orthogonalLoop=1;jettySize=auto;html=1;fontSize=12;" edge="1" parent="1" source="7C1xdIGx_7xfbtWlueGm-25" target="7C1xdIGx_7xfbtWlueGm-27">
          <mxGeometry relative="1" as="geometry" />
        </mxCell>
        <mxCell id="7C1xdIGx_7xfbtWlueGm-25" value="獲取數值：光感、CO、窗、PIR" style="whiteSpace=wrap;html=1;fontSize=14;" vertex="1" parent="1">
          <mxGeometry x="370" y="400" width="120" height="60" as="geometry" />
        </mxCell>
        <mxCell id="7C1xdIGx_7xfbtWlueGm-30" value="" style="edgeStyle=orthogonalEdgeStyle;rounded=0;orthogonalLoop=1;jettySize=auto;html=1;fontSize=12;" edge="1" parent="1" source="7C1xdIGx_7xfbtWlueGm-27" target="7C1xdIGx_7xfbtWlueGm-29">
          <mxGeometry relative="1" as="geometry" />
        </mxCell>
        <mxCell id="7C1xdIGx_7xfbtWlueGm-27" value="傳送數值：光感、CO、聲音峰值、窗、PIR" style="whiteSpace=wrap;html=1;fontSize=14;" vertex="1" parent="1">
          <mxGeometry x="370" y="480" width="120" height="60" as="geometry" />
        </mxCell>
        <mxCell id="7C1xdIGx_7xfbtWlueGm-31" style="edgeStyle=orthogonalEdgeStyle;rounded=0;orthogonalLoop=1;jettySize=auto;html=1;exitX=0.5;exitY=1;exitDx=0;exitDy=0;fontSize=12;" edge="1" parent="1" source="7C1xdIGx_7xfbtWlueGm-29">
          <mxGeometry relative="1" as="geometry">
            <mxPoint x="430" y="300" as="targetPoint" />
            <Array as="points">
              <mxPoint x="430" y="640" />
              <mxPoint x="550" y="640" />
              <mxPoint x="550" y="300" />
            </Array>
          </mxGeometry>
        </mxCell>
        <mxCell id="7C1xdIGx_7xfbtWlueGm-29" value="聲音峰值歸零" style="whiteSpace=wrap;html=1;fontSize=14;" vertex="1" parent="1">
          <mxGeometry x="370" y="560" width="120" height="60" as="geometry" />
        </mxCell>
      </root>
    </mxGraphModel>
  </diagram>
</mxfile>
